<svg xmlns="http://www.w3.org/2000/svg" viewBox="0 0 110 72" class="partners__featured--image"><title>logo-white-att</title><g fill="none"><path fill="#7d97ad" d="M73.36 47.67a.47.47 0 0 1-.5-.5V32.6H67.9a.47.47 0 0 1-.5-.5v-2.02c0-.3.2-.5.5-.5h13.2c.28 0 .48.2.48.5v2a.47.47 0 0 1-.5.5h-4.94v14.6a.47.47 0 0 1-.5.5h-2.28zm13.8-2.44c-1.5 0-2.75-1.1-2.75-2.67 0-1.6.9-2.38 2.3-3.17l3.68 3.93c-.8 1.2-1.77 1.9-3.2 1.9zm1.02-13.25c1.18 0 1.77.77 1.77 1.7 0 1-.68 1.55-2.3 2.48-.9-1-1.32-1.67-1.32-2.44 0-1 .68-1.74 1.85-1.74zM98.2 47.03l-3.82-4.13 2.53-4.34c.24-.4.03-.64-.33-.64h-2.2c-.35 0-.56.12-.74.4l-1.42 2.5-2.52-2.74c1.7-.95 3.34-2.2 3.34-4.47 0-2.64-1.85-4.42-4.88-4.42-2.96 0-4.93 1.92-4.93 4.72 0 1.1.5 2.37 1.53 3.57-2.13 1.18-3.53 2.58-3.53 5.2 0 3.4 2.6 5.4 5.9 5.4 2.67 0 4.27-1.15 5.43-2.7l1.7 1.9c.26.3.47.4.85.4h2.87c.36 0 .54-.32.25-.64zM58.62 40.4l2.62-7.47 2.6 7.46h-5.22zm11 6.68l-6.14-17.05c-.1-.3-.34-.45-.68-.45h-3.03c-.34 0-.54.14-.65.45L53 47.08c-.12.3.08.6.37.6h2.22c.33 0 .53-.17.65-.5l1.33-3.83h7.3l1.34 3.84c.1.3.3.47.65.47h2.35c.32 0 .5-.3.4-.6zm34.44.6a.47.47 0 0 0 .5-.5v-14.6h4.94a.47.47 0 0 0 .5-.5v-2a.47.47 0 0 0-.5-.5H96.32a.47.47 0 0 0-.5.5v2c0 .3.2.5.5.5h4.96v14.6c0 .28.2.5.5.5h2.28zm-95.31 8.8A22.58 22.58 0 0 0 22.6 61.2c5.72 0 10.93-2.12 14.9-5.6.05-.05.03-.08-.02-.05-1.78 1.2-6.87 3.8-14.87 3.8-6.95 0-11.34-1.56-13.82-2.95-.05-.02-.07 0-.03.04zm15.4 1.14c5.56 0 11.67-1.52 15.33-4.52 1-.82 1.95-1.9 2.8-3.37.5-.84.98-1.84 1.37-2.83.02-.04 0-.07-.05 0-3.4 5-13.25 8.1-23.4 8.1-7.2 0-14.93-2.28-17.96-6.68-.03-.04-.06-.02-.04.03 2.82 6 11.37 9.27 21.94 9.27zm-6.08-9.95C6.5 47.67 1.04 42.27.05 38.6c0-.05-.05-.04-.05 0 0 1.25.13 2.85.34 3.9.1.52.52 1.33 1.14 1.98 2.8 2.92 9.78 7 21.88 7 16.48 0 20.25-5.48 21.02-7.28.55-1.3.84-3.63.84-5.6 0-.47 0-.84-.03-1.22 0-.06-.05-.06-.06 0-.82 4.42-14.9 10.3-27.07 10.3zM2.17 28.9c-.65 1.33-1.4 3.55-1.6 4.7-.1.5-.06.72.1 1.1 1.4 2.94 8.4 7.65 24.78 7.65 9.98 0 17.73-2.46 19-6.94.22-.8.23-1.68-.06-2.85-.34-1.3-.97-2.84-1.5-3.9 0-.05-.04-.04-.03 0 .2 5.87-16.18 9.66-24.44 9.66-8.94 0-16.4-3.56-16.4-8.06 0-.44.08-.87.2-1.32 0-.04-.03-.05-.05 0zm35.37-7.2a.9.9 0 0 1 .14.52c0 2.5-7.68 6.96-19.92 6.96-9 0-10.67-3.34-10.67-5.46 0-.76.28-1.53.92-2.32.04-.05 0-.07-.03-.03a22.68 22.68 0 0 0-3.2 3.3c-.44.57-.72 1.08-.72 1.38 0 4.4 11.02 7.58 21.32 7.58 10.98 0 15.88-3.58 15.88-6.74 0-1.13-.44-1.8-1.56-3.06a26.6 26.6 0 0 0-2.15-2.17c-.03-.03-.06 0-.03.03zm-3.37-2.5A22.35 22.35 0 0 0 22.6 16a22.44 22.44 0 0 0-11.72 3.28c-1.02.63-1.6 1.13-1.6 1.78 0 1.9 4.47 3.96 12.37 3.96 7.82 0 13.9-2.25 13.9-4.4 0-.53-.46-.9-1.38-1.43z"></path><path d="M0 0h110v72H0z"></path></g></svg>