<svg xmlns="http://www.w3.org/2000/svg" viewBox="0 0 52 72"><g fill="none"><path fill="#7D97AD" fill-rule="nonzero" d="M15.32 36.12c-.02.5.05 1.02.2 1.52.14.42.32.83.54 1.22.08.1.12.25.12.38-.02.22-.14.4-.33.5l-1.07.7c-.13.1-.3.17-.45.17-.2 0-.38-.08-.5-.23-.24-.23-.44-.5-.6-.8-.18-.27-.35-.6-.54-.98-1.23 1.5-3.07 2.36-5 2.33-1.27.08-2.5-.36-3.44-1.2-.86-.88-1.3-2.07-1.25-3.3-.05-1.33.52-2.6 1.55-3.48 1.18-.93 2.67-1.4 4.18-1.33.6 0 1.2.06 1.8.14.63.1 1.33.2 1.96.37v-1.25c.08-.96-.2-1.9-.8-2.66-.8-.6-1.8-.9-2.8-.8-.6 0-1.22.08-1.83.23-.62.15-1.24.34-1.84.58-.2.1-.38.16-.58.22-.1 0-.18 0-.27 0-.24 0-.36-.2-.36-.54v-.82c-.02-.2.02-.42.12-.6.13-.15.3-.28.47-.36.7-.32 1.42-.58 2.17-.77.87-.22 1.77-.33 2.66-.32 1.6-.16 3.2.32 4.46 1.33 1 1.14 1.53 2.65 1.4 4.17l.02 5.6zM8.4 38.7c.6 0 1.2-.1 1.75-.3.63-.22 1.2-.6 1.62-1.1.27-.3.47-.68.6-1.07.1-.5.15-.98.15-1.48v-.72c-.53-.12-1.06-.22-1.6-.28-.52-.07-1.06-.1-1.6-.1-.9-.07-1.8.17-2.53.7-.58.47-.9 1.2-.85 1.94-.04.65.18 1.3.63 1.8.5.43 1.15.65 1.8.6zm13.7 1.82c-.24.02-.47-.04-.66-.16-.2-.18-.3-.4-.36-.66l-4-13.15c-.07-.22-.12-.43-.15-.66 0-.12.03-.23.1-.3.1-.1.2-.13.3-.12h1.7c.23-.02.46.04.66.16.16.2.28.43.34.68l2.9 11.22L25.6 26.3c.04-.25.16-.48.33-.67.2-.13.45-.18.68-.16h1.35c.24-.02.48.03.7.16.16.2.27.42.3.68l2.68 11.4 2.95-11.4c.06-.25.18-.48.36-.67.2-.13.43-.18.66-.16h1.6c.1-.02.22.03.3.1.1.1.12.2.1.32 0 .1 0 .18 0 .27l-.1.42-4.16 13.12c-.05.26-.18.5-.36.67-.22.1-.47.16-.7.12h-1.34c-.25.02-.5-.04-.7-.17-.17-.2-.3-.44-.32-.7l-2.67-10.94-2.66 10.96c-.05.25-.17.5-.35.7-.2.12-.44.18-.68.16H22.1zm21.9.45c-.9 0-1.8-.1-2.67-.3-.7-.14-1.35-.37-1.98-.68-.22-.1-.4-.28-.52-.5-.06-.14-.1-.3-.1-.47v-.86c0-.35.13-.53.38-.53.12-.02.23-.02.33 0l.43.17c.6.27 1.24.47 1.88.6.67.14 1.35.2 2.03.2.87.06 1.73-.14 2.5-.55.54-.3.9-.9.9-1.52.02-.44-.14-.87-.45-1.18-.5-.42-1.08-.73-1.7-.9l-2.5-.78c-1.04-.3-1.97-.88-2.66-1.7-.57-.7-.9-1.58-.92-2.5-.02-.64.14-1.3.45-1.87.3-.52.73-.97 1.22-1.33.53-.4 1.13-.7 1.77-.88.7-.2 1.42-.3 2.14-.3.38 0 .77 0 1.15.06.38 0 .75.12 1.1.2.32.07.65.16.97.27.24.07.48.17.7.3.2.1.38.24.53.42.1.16.15.36.14.55v.8c0 .36-.13.55-.38.55-.24-.03-.46-.1-.67-.22-1.04-.44-2.16-.67-3.3-.65-.78-.04-1.56.13-2.26.48-.42.3-.7.75-.76 1.26-.05.52.12 1.02.47 1.4.55.44 1.2.77 1.88.95l2.4.77c1.05.25 1.98.83 2.68 1.63.54.68.8 1.52.8 2.38.02.68-.1 1.35-.4 1.97-.32.6-.78 1.1-1.32 1.5-.57.43-1.2.76-1.9.95-.77.22-1.58.34-2.4.33v-.03zm2.58 9C40.95 53.9 32.76 56 25.7 56c-9.4.04-18.5-3.23-25.48-9.18-.53-.45 0-1.06.57-.72 7.75 4.2 16.54 6.4 25.48 6.4 6.7-.05 13.3-1.34 19.47-3.8.97-.35 1.77.63.83 1.27zm3-2.57c-.67-.87-4.45-.4-6.15-.2-.5.06-.6-.4-.12-.72 3.02-2.15 7.94-1.52 8.52-.8.57.7-.15 5.73-2.98 8.13-.42.38-.83.2-.65-.3.58-1.62 2-5.22 1.38-6.1z"></path><path d="M0 0h52v72H0z"></path></g></svg>