<svg xmlns="http://www.w3.org/2000/svg" viewBox="0 0 43 72"><g fill="none"><path fill="#7D97AD" fill-rule="nonzero" d="M0 22.5h6.52v17.3c0 2.73 1.26 4.36 2.28 5.04-1.07.92-4.3 1.74-6.72-.23C.65 43.46 0 41.53 0 39.73V22.5zm40.7 12.55h2V28.7h-2.2c-.84-3.85-4.28-6.7-8.4-6.7-4.74 0-8.6 3.8-8.6 8.5v14.86c1.35.2 2.97-.02 4.34-1.16 1.43-1.16 2.08-3.1 2.08-4.9v-.54h3.24V32.4h-3.24v-1.94c0-1.2.97-2.16 2.18-2.16.58 0 1.14.22 1.55.63.4.4.64.96.64 1.53v6.4c0 4.68 3.85 8.5 8.6 8.5V39c-1.22 0-2.2-.95-2.2-2.13v-1.82zm-24.65-6.4v9.38c0 .53-.45.96-1 .96-.54 0-1-.44-1-.97v-9.37H7.63v11c0 1.97.68 4.48 3.77 5.3 3.1.8 4.87-.9 4.87-.9-.18 1.13-1.2 1.94-2.93 2.1-1.3.14-2.94-.3-3.77-.63v5.83c2.1.62 4.32.8 6.5.38 3.95-.75 6.44-4 6.44-8.35V28.6h-6.45v.04z"></path><path d="M0 0h43v72H0z"></path></g></svg>