<svg xmlns="http://www.w3.org/2000/svg" viewBox="0 0 136 72" class="partners__featured--image"><title>logo-white-nvidia</title><g fill="none"><g fill="#7d97ad"><path d="M125.83 33.97l2.88 8.06h-5.86l2.98-8.06zm-3.1-3.15l-6.66 17.22h4.7l1.06-3.04h7.87l1 3.04h5.1l-6.7-17.22h-6.37zm-13.37 17.23h4.77V30.82h-4.77v17.23zM76.23 30.82l-3.98 13.65-3.8-13.65h-5.16l5.43 17.23h6.88l5.5-17.23h-4.87zm19.3 3.75h2.04c2.98 0 4.9 1.36 4.9 4.9s-1.93 4.9-4.9 4.9h-2.05v-9.8zm-4.74-3.75v17.23h7.72c4.13 0 5.47-.7 6.93-2.27 1.02-1.1 1.7-3.52 1.7-6.16 0-2.42-.57-4.58-1.55-5.93-1.77-2.4-4.32-2.88-8.12-2.88h-6.7zm-45.2-.03v17.25h4.8v-13.1h3.73c1.23 0 2.1.3 2.7.96.76.83 1.07 2.15 1.07 4.57v7.58h4.66V38.5c0-6.8-4.25-7.7-8.4-7.7h-8.57zm37.5.02v17.23h4.78V30.82H83.1zM4.12 37.8s3.64-5.5 10.92-6.05v-2C6.98 30.43 0 37.4 0 37.4S3.95 49.04 15.04 50.1V48C6.9 46.94 4.12 37.8 4.12 37.8zm10.92 5.98v1.94c-6.15-1.12-7.86-7.64-7.86-7.64s2.96-3.34 7.86-3.88v2.13c-2.58-.32-4.6 2.13-4.6 2.13s1.13 4.13 4.6 5.32zm0-17.7v3.67c.24-.02.47-.03.7-.04 9.17-.3 15.14 7.68 15.14 7.68s-6.85 8.5-14 8.5c-.65 0-1.26-.06-1.84-.16V48c.5.05 1 .1 1.54.1 6.64 0 11.45-3.47 16.1-7.57.78.63 3.94 2.16 4.6 2.83-4.44 3.78-14.76 6.83-20.6 6.83-.57 0-1.1-.04-1.64-.1v3.2H40.3V26.07H15.05zm0 8.12v-2.46c.23 0 .47-.02.7-.03 6.6-.2 10.92 5.8 10.92 5.8S22 44.09 17 44.09c-.73 0-1.38-.12-1.96-.32v-7.45c2.56.32 3.08 1.47 4.62 4.1l3.43-2.96s-2.5-3.35-6.73-3.35c-.46 0-.9.04-1.33.08z"></path></g><path d="M0 0h136v73H0z"></path></g></svg>